<svg xmlns="http://www.w3.org/2000/svg" viewBox="0 0 440.35 100"><defs><style>.cls-1,.cls-2{fill:#fff;}.cls-1{opacity:0.5;}</style></defs><title>odin-logo</title><g id="Layer_2" data-name="Layer 2"><g id="Layer_1-2" data-name="Layer 1"><path class="cls-1" d="M0,18.75l18.75,3.13V37.5a37.5,37.5,0,0,0,27,36L37.64,95.25a2.34,2.34,0,0,0,1.4,3l4.41,1.61a2.35,2.35,0,0,0,3-1.4l8.69-23.52c.38,0,.74.06,1.11.06h7.63L56.39,95.25a2.34,2.34,0,0,0,1.4,3l4.41,1.61a2.35,2.35,0,0,0,3-1.4L73.88,75H92.72l23.74,11.87a5.9,5.9,0,0,0,6.18-10L50,19.72V15.63A15.58,15.58,0,0,0,22,6.25h-3.2C8.39,6.25,0,11.85,0,18.75Zm29.69-3.12a4.69,4.69,0,1,1,4.69,4.68A4.69,4.69,0,0,1,29.69,15.63Z"/><path class="cls-2" d="M119.25,6.25h-3.2a15.58,15.58,0,0,0-28,9.38v4.09L15.36,76.87a5.9,5.9,0,0,0,6.18,10L45.28,75H64.13L72.8,98.46a2.35,2.35,0,0,0,3,1.4l4.41-1.61a2.34,2.34,0,0,0,1.4-3L74.12,75h7.63c.37,0,.73,0,1.11-.06l8.69,23.52a2.35,2.35,0,0,0,3,1.4L99,98.25a2.34,2.34,0,0,0,1.4-3L92.3,73.47a37.5,37.5,0,0,0,27-36V21.88L138,18.75C138,11.85,129.61,6.25,119.25,6.25ZM103.63,20.31a4.69,4.69,0,1,1,4.68-4.68A4.69,4.69,0,0,1,103.63,20.31Z"/><path class="cls-2" d="M196.11,10c-22.83,0-40.05,17.17-40.05,40S173.28,90,196.11,90s39.95-17.22,39.95-40S218.89,10,196.11,10Zm0,60.38c-11.23,0-18.49-8-18.49-20.43s7.09-20.23,18.49-20.23c11.17,0,18.39,7.94,18.39,20.23S207.28,70.38,196.11,70.38Z"/><path class="cls-2" d="M278.5,11H250.12V89.28H278.5c24.57,0,41.08-15.68,41.08-39S303.07,11,278.5,11Zm-7.23,18.9H278c13,0,20.13,7.22,20.13,20.34s-7,20-20.13,20h-6.72Z"/><rect class="cls-2" x="333.74" y="11.02" width="21.15" height="78.26"/><polygon class="cls-2" points="419.2 10.92 419.2 52.1 392 10.92 372.42 10.92 372.42 89.28 393.58 89.28 393.58 48.19 420.77 89.28 440.35 89.28 440.35 10.92 419.2 10.92"/></g></g></svg>